Coordinates
version=1
nRows=27
nColumns=19
inDegrees=yes

Units are S.I. units (second, meters, Newtons, ...)
If the header above contains a line with 'inDegrees', this indicates whether rotational values are in degrees (yes) or radians (no).

endheader
time	pelvis_tilt	pelvis_list	pelvis_rotation	pelvis_tx	pelvis_ty	pelvis_tz	hip_flexion_r	hip_adduction_r	hip_rotation_r	knee_angle_r	knee_angle_r_beta	ankle_angle_r	hip_flexion_l	hip_adduction_l	hip_rotation_l	knee_angle_l	knee_angle_l_beta	ankle_angle_l
     15.41333333	     -2.70810964	     -0.71203978	     -3.44049734	      2.26078491	      0.92078245	      1.02652776	     27.19316233	      5.16778852	     -4.67011657	     21.52904335	      0.37575269	     -3.04539099	    -18.61601539	     -4.12616978	     -8.35841302	     83.04922111	      1.44948235	     -9.26732724
     15.42000000	     -2.69101934	     -0.86542609	     -3.75177140	      2.26038250	      0.91512247	      1.02613477	     27.38244972	      5.37563779	     -4.28045508	     24.48476514	      0.42733977	     -1.50578934	    -17.26350652	     -4.11931038	     -7.96971874	     87.09487989	      1.52009242	     -9.13383830
     15.42666667	     -2.81075684	     -1.00914165	     -4.04718323	      2.25985709	      0.90912455	      1.02576709	     27.63793557	      5.61705334	     -3.79188448	     27.46216412	      0.47930518	      0.42160870	    -15.64961458	     -4.18301293	     -7.64606270	     91.08163892	      1.58967449	     -8.93482657
     15.43333333	     -3.04158210	     -1.14713936	     -4.35744055	      2.25909964	      0.90293119	      1.02545727	     27.92715484	      5.90464641	     -3.23181477	     30.39548528	      0.53050130	      2.67492127	    -13.78398930	     -4.31412759	     -7.38891668	     95.00139177	      1.65808708	     -8.68090060
     15.44000000	     -3.39178250	     -1.27921722	     -4.64942519	      2.25807695	      0.89670865	      1.02516678	     28.23563505	      6.21522736	     -2.67472545	     33.20998490	      0.57962358	      5.15569906	    -11.63055590	     -4.52660693	     -7.14140499	     98.84811884	      1.72522513	     -8.36498861
     15.44666667	     -3.81357023	     -1.42780783	     -4.94361814	      2.25672215	      0.89068036	      1.02490908	     28.48371338	      6.57140209	     -2.12438356	     35.81377062	      0.62506821	      7.79087504	     -9.22398894	     -4.82183859	     -6.89096704	    102.58534635	      1.79045206	     -8.05009494
     15.45333333	     -4.34800689	     -1.56041741	     -5.20713093	      2.25505183	      0.88492371	      1.02469753	     28.70511297	      6.92081089	     -1.60660640	     38.17431329	      0.66626746	     10.49155693	     -6.49641858	     -5.18499368	     -6.58686098	    106.20131434	      1.85356261	     -7.74399130
     15.46000000	     -4.91674182	     -1.68114818	     -5.45792266	      2.25299705	      0.87969200	      1.02446977	     28.80212601	      7.25260390	     -1.11855909	     40.23306973	      0.70219953	     13.14681279	     -3.51637775	     -5.57578219	     -6.21967700	    109.63739163	      1.91353347	     -7.48829886
     15.46666667	     -5.50140203	     -1.79001122	     -5.67725271	      2.25059861	      0.87510424	      1.02420816	     28.73598834	      7.54492395	     -0.67835149	     41.94770019	      0.73212548	     15.66014300	     -0.30259714	     -5.98363535	     -5.76581991	    112.85122720	      1.96962548	     -7.26343430
     15.47333333	     -6.07638271	     -1.84539301	     -5.89214862	      2.24792084	      0.87128425	      1.02393814	     28.47222669	      7.76168349	     -0.22820482	     43.29954845	      0.75571968	     17.96818620	      3.10851639	     -6.33998375	     -5.26147139	    115.76747224	      2.02052356	     -7.13588767
     15.48000000	     -6.49535610	     -1.86660754	     -6.11722922	      2.24518205	      0.86849248	      1.02366233	     27.80863573	      7.89754216	      0.22770746	     44.22622263	      0.77189320	     20.01384723	      6.48180366	     -6.64328448	     -4.76524153	    118.26894881	      2.06418256	     -7.02646338
     15.48666667	     -5.97084015	     -1.70678691	     -6.76645021	      2.24377849	      0.86819932	      1.02376879	     25.68286675	      7.86359905	      1.14603285	     44.51982796	      0.77701758	     21.75008437	      8.50447618	     -6.61270801	     -4.88902402	    119.66538579	      2.08855498	     -7.07888521
     15.49333333	     -4.53526076	     -0.95232757	     -8.12657503	      2.24354491	      0.87025319	      1.02461851	     22.33941715	      7.24956319	      2.91632924	     44.46666812	      0.77608977	     23.28491809	      9.14749233	     -5.84997728	     -6.10202532	    119.86363230	      2.09201504	     -7.24527114
     15.50000000	     -3.01317769	     -0.48926022	     -8.97857317	      2.24294660	      0.87328760	      1.02509287	     18.58884185	      6.54369604	      4.09767215	     43.68631739	      0.76247008	     24.31543455	      9.91567684	     -5.40996020	     -6.78128554	    119.90708928	      2.09277350	     -7.22804818
     15.50666667	     -2.65871099	      0.30273843	     -9.50290572	      2.24172519	      0.87563354	      1.02533628	     16.15855619	      5.50055445	      5.02480726	     42.73460964	      0.74585964	     24.78380166	     12.34715639	     -4.73607622	     -7.14915166	    119.92526316	      2.09309070	     -7.18602146
     15.51333333	     -2.34675903	      1.01932859	     -9.80660973	      2.23948082	      0.87804339	      1.02543369	     13.82285807	      4.45446436	      5.69388742	     41.68811095	      0.72759480	     25.01462907	     15.01138363	     -4.19747004	     -7.34068479	    119.92813230	      2.09314077	     -7.01585677
     15.52000000	     -2.29892921	      1.39629452	     -9.31587324	      2.23692349	      0.88061088	      1.02479060	     11.53051504	      3.60746844	      5.44765283	     40.18338144	      0.70133231	     24.74311318	     18.18811703	     -3.87050784	     -6.66655413	    119.92457880	      2.09307875	     -6.79814751
     15.52666667	     -3.06617247	      1.65958213	     -8.66210634	      2.23392891	      0.88234036	      1.02398643	     10.12845326	      3.05188110	      5.05881597	     38.63979037	      0.67439156	     23.95167433	     22.33705299	     -3.70311831	     -5.81858908	    119.91086377	      2.09283938	     -6.41243478
     15.53333333	     -4.67283516	      1.74885073	     -7.65056991	      2.23065078	      0.88311473	      1.02270344	      9.68217038	      2.76070052	      4.23416765	     37.18218192	      0.64895150	     22.74708596	     27.53959960	     -3.53001966	     -4.55001305	    119.87453480	      2.09220532	     -6.13203916
     15.54000000	     -6.65651505	      1.42637383	     -6.57858451	      2.22740947	      0.88334670	      1.02128080	      9.57655450	      2.96505571	      3.33361386	     35.64036513	      0.62204172	     21.12931656	     33.06473192	     -3.61446768	     -3.05497819	    119.73629997	      2.08979267	     -5.64672814
     15.54666667	     -7.67593306	      1.15210293	     -5.76755222	      2.22571784	      0.88562749	      1.02027356	      8.14853761	      3.00958205	      2.57759401	     33.55545092	      0.58565310	     18.92633557	     36.92626475	     -3.49900538	     -2.03253834	    118.69633737	      2.07164190	     -5.20037913
     15.55333333	     -7.97712629	      1.59114330	     -5.38872603	      2.22595000	      0.89026690	      1.01982716	      5.79334290	      2.26704936	      2.28647332	     31.07540421	      0.54236812	     16.16792825	     39.21815019	     -2.74534931	     -2.03759289	    116.45488706	      2.03252121	     -4.78060630
     15.56000000	     -7.85455302	      2.16040294	     -5.13137476	      2.22700647	      0.89599864	      1.01970869	      2.88638166	      1.37633793	      2.00905097	     28.29381564	      0.49382024	     12.88091256	     40.61410936	     -1.92528254	     -2.33332859	    113.67671481	      1.98403296	     -4.37357211
     15.56666667	     -7.86956601	      2.72606652	     -4.80050527	      2.22849151	      0.90180320	      1.01949061	      0.14283031	      0.52128352	      1.56013343	     25.44958533	      0.44417906	      9.17963642	     41.92476481	     -1.09113703	     -2.61705702	    110.61014083	      1.93051114	     -3.96952893
     15.57333333	     -8.07844610	      3.19004731	     -4.34518891	      2.23030415	      0.90746037	      1.01912943	     -2.35989442	     -0.17438016	      0.86513571	     22.59535231	      0.39436329	      5.11643175	     43.24556526	     -0.28938814	     -2.75978809	    107.33006107	      1.87326295	     -3.56914728
     15.58000000	     -8.19638596	      3.70116269	     -3.93650914	      2.23247666	      0.91327243	      1.01887264	     -4.88434699	     -0.88300676	      0.09759084	     19.80376859	      0.34564097	      0.94662277	     44.19813131	      0.49401949	     -3.01974426	    103.76485986	      1.81103845	     -3.17820128
     15.58666667	     -8.27312428	      4.22412196	     -3.58214274	      2.23488135	      0.91904701	      1.01873682	     -7.33510669	     -1.55991834	     -0.72896071	     17.17501423	      0.29976055	     -3.14892652	     44.86887217	      1.19727430	     -3.37944746	     99.95543597	      1.74455146	     -2.79057509
